<svg xmlns="http://www.w3.org/2000/svg" xmlns:xlink="http://www.w3.org/1999/xlink" width="500" zoomAndPan="magnify" viewBox="0 0 375 374.999991" height="500" preserveAspectRatio="xMidYMid meet" version="1.2"><g id="9ca8c5e484"><path style=" stroke:none;fill-rule:evenodd;fill:#38b6ff;fill-opacity:1;" d="M 260.765625 246.511719 C 257.871094 246.5625 257.925781 242.039062 260.765625 242.09375 L 295.6875 242.09375 C 304.734375 242.09375 312.148438 245.667969 317.882812 251.402344 C 324.195312 257.714844 328.402344 266.707031 330.398438 276.4375 L 334.871094 298.476562 C 337.5 309.78125 327.980469 321.40625 316.410156 321.089844 L 151.839844 321.089844 C 140.269531 321.40625 130.75 309.78125 133.378906 298.476562 C 134.222656 296.527344 133.75 289.480469 137.273438 290.21875 C 140.742188 290.742188 137.691406 297.316406 137.691406 299.316406 C 136.167969 305.679688 139.847656 312.515625 145.632812 315.253906 C 147.476562 316.148438 149.578125 316.566406 151.839844 316.566406 L 316.304688 316.566406 C 325.191406 316.882812 332.503906 307.890625 330.453125 299.261719 L 325.980469 277.226562 C 322.722656 261.289062 312.992188 246.617188 295.582031 246.457031 L 260.765625 246.457031 Z M 179.402344 246.511719 L 206.695312 246.511719 C 207.90625 246.511719 208.90625 245.511719 208.90625 244.300781 C 208.90625 243.09375 207.90625 242.09375 206.695312 242.09375 L 179.402344 242.09375 C 176.558594 242.039062 176.507812 246.511719 179.402344 246.511719 Z M 179.402344 246.511719 "/><path style=" stroke:none;fill-rule:evenodd;fill:#38b6ff;fill-opacity:1;" d="M 260.765625 316.621094 C 263.605469 316.566406 263.65625 321.089844 260.765625 321.039062 L 206.695312 321.039062 C 203.855469 321.089844 203.804688 316.566406 206.695312 316.621094 Z M 260.765625 316.621094 "/><path style=" stroke:none;fill-rule:evenodd;fill:#38b6ff;fill-opacity:1;" d="M 204.488281 226 C 204.433594 223.160156 208.957031 223.105469 208.90625 226 L 208.90625 244.300781 C 208.90625 245.511719 207.90625 246.511719 206.695312 246.511719 C 205.488281 246.511719 204.488281 245.511719 204.488281 244.300781 Z M 207.589844 262.5 C 206.277344 259.976562 210.273438 257.976562 211.535156 260.554688 C 213.585938 264.707031 216.796875 268.179688 220.738281 270.652344 C 232.519531 278.4375 250.085938 273.335938 256.03125 260.554688 C 257.242188 257.976562 261.289062 259.976562 259.976562 262.5 C 250.191406 283.800781 217.269531 283.800781 207.589844 262.5 Z M 262.972656 244.300781 C 263.027344 247.140625 258.503906 247.195312 258.554688 244.300781 L 258.554688 226 C 258.554688 224.789062 259.554688 223.789062 260.765625 223.789062 C 261.972656 223.789062 262.972656 224.789062 262.972656 226 Z M 262.972656 244.300781 "/><path style=" stroke:none;fill-rule:evenodd;fill:#38b6ff;fill-opacity:1;" d="M 299.738281 138.640625 C 297.371094 140.269531 294.898438 136.484375 297.316406 134.957031 C 299.105469 133.75 301 132.90625 302.945312 132.539062 C 331.765625 130.59375 320.40625 187.078125 296.371094 184.921875 C 293.53125 184.605469 294.058594 180.1875 296.898438 180.558594 C 300.105469 180.976562 303.628906 179.242188 306.679688 176.140625 C 318.304688 166.933594 320.300781 128.121094 299.738281 138.640625 Z M 299.738281 138.640625 "/><path style=" stroke:none;fill-rule:evenodd;fill:#38b6ff;fill-opacity:1;" d="M 170.144531 134.957031 C 172.5625 136.535156 170.089844 140.21875 167.722656 138.640625 C 147.160156 128.121094 149.210938 166.988281 160.78125 176.140625 C 163.886719 179.296875 167.355469 180.976562 170.566406 180.558594 C 173.40625 180.136719 173.929688 184.660156 171.089844 184.921875 C 153.207031 185.765625 144.003906 158.414062 148.683594 143.898438 C 151.316406 133.539062 161.675781 128.910156 170.144531 134.957031 Z M 170.144531 134.957031 "/><path style=" stroke:none;fill-rule:evenodd;fill:#38b6ff;fill-opacity:1;" d="M 296.316406 133.378906 C 296.265625 130.539062 300.789062 130.488281 300.734375 133.378906 L 300.734375 167.144531 C 300.734375 204.015625 270.597656 234.152344 233.730469 234.152344 C 196.863281 234.152344 166.726562 204.015625 166.726562 167.144531 C 166.726562 155.3125 166.671875 143.425781 166.726562 131.539062 C 166.726562 130.328125 167.722656 129.332031 168.933594 129.382812 C 170.144531 129.382812 171.144531 130.382812 171.089844 131.59375 C 171.039062 143.425781 171.089844 155.3125 171.089844 167.144531 C 171.089844 184.34375 178.136719 200.015625 189.5 211.324219 C 227.367188 250.613281 296.949219 222.160156 296.265625 167.144531 C 296.316406 167.144531 296.316406 133.378906 296.316406 133.378906 Z M 296.316406 133.378906 "/><path style=" stroke:none;fill-rule:evenodd;fill:#38b6ff;fill-opacity:1;" d="M 199.648438 153.578125 C 199.597656 150.734375 204.121094 150.734375 204.066406 153.578125 C 203.648438 158.308594 205.488281 166.042969 201.859375 165.832031 C 200.648438 165.832031 199.648438 164.832031 199.648438 163.621094 Z M 199.648438 153.578125 "/><path style=" stroke:none;fill-rule:evenodd;fill:#38b6ff;fill-opacity:1;" d="M 263.394531 153.578125 C 263.339844 150.734375 267.863281 150.734375 267.8125 153.578125 C 267.390625 158.308594 269.230469 166.042969 265.601562 165.832031 C 264.394531 165.832031 263.394531 164.832031 263.394531 163.621094 Z M 263.394531 153.578125 "/><path style=" stroke:none;fill-rule:evenodd;fill:#38b6ff;fill-opacity:1;" d="M 238.203125 56.222656 C 201.175781 55.015625 196.757812 65.585938 192.8125 75 C 191.023438 79.3125 189.289062 83.363281 185.238281 86.519531 C 159.152344 91.25 166.042969 112.238281 171.25 131.59375 C 177.980469 128.960938 187.289062 121.386719 192.863281 116.96875 C 196.757812 113.816406 202.015625 113.550781 206.277344 116.234375 C 216.269531 122.757812 228.628906 127.015625 238.988281 128.226562 C 244.355469 128.855469 249.296875 126.015625 251.351562 121.074219 C 260.605469 102.140625 287.535156 123.964844 298.316406 130.59375 C 313.253906 92.671875 278.066406 55.222656 238.203125 56.222656 Z M 188.710938 73.316406 C 193.179688 62.585938 198.230469 50.542969 238.304688 51.804688 C 282.171875 50.542969 320.144531 93.828125 301.210938 134.640625 C 298.789062 137.902344 296.476562 134.222656 293.058594 132.378906 C 285.222656 127.753906 262.605469 109.554688 255.347656 122.703125 C 252.558594 129.539062 245.722656 133.484375 238.410156 132.589844 C 227.472656 131.277344 214.480469 126.859375 203.910156 119.96875 C 201.28125 118.285156 198.070312 118.441406 195.652344 120.441406 C 189.289062 125.386719 177.664062 135.0625 170.089844 136.484375 C 168.988281 136.695312 167.882812 135.957031 167.621094 134.851562 C 161.730469 113.921875 154.101562 88.042969 182.976562 82.730469 C 185.816406 80.3125 187.238281 76.894531 188.710938 73.316406 Z M 188.710938 73.316406 "/><path style=" stroke:none;fill-rule:evenodd;fill:#38b6ff;fill-opacity:1;" d="M 262.238281 248.878906 L 251.085938 316.621094 L 280.699219 316.621094 C 273.542969 310.941406 269.496094 301.945312 276.699219 294.476562 C 281.488281 289.007812 294.214844 281.171875 286.324219 272.964844 Z M 246.351562 318.460938 L 258.554688 244.09375 C 258.609375 243.566406 258.816406 243.09375 259.1875 242.722656 C 260.027344 241.882812 261.449219 241.882812 262.289062 242.722656 L 289.429688 269.863281 C 294.425781 274.859375 294.425781 283.011719 289.429688 288.007812 C 286.640625 291.480469 276.699219 298.421875 277.382812 303.578125 C 276.804688 308.46875 284.800781 313.988281 287.484375 317.199219 C 289.007812 318.40625 288.0625 321.144531 286.0625 321.089844 L 248.511719 321.089844 C 247.195312 320.984375 246.144531 319.828125 246.351562 318.460938 Z M 246.351562 318.460938 "/><path style=" stroke:none;fill-rule:evenodd;fill:#38b6ff;fill-opacity:1;" d="M 208.90625 244.09375 L 221.109375 318.460938 C 221.316406 319.671875 220.476562 320.773438 219.265625 320.984375 L 181.398438 321.039062 C 179.402344 321.089844 178.402344 318.40625 179.980469 317.144531 C 182.714844 313.832031 190.65625 308.46875 190.078125 303.523438 C 190.761719 298.421875 180.769531 291.375 178.03125 287.957031 C 173.035156 282.960938 173.035156 274.808594 178.03125 269.8125 L 205.171875 242.671875 C 206.382812 241.410156 208.800781 242.25 208.90625 244.09375 Z M 216.375 316.621094 L 205.222656 248.878906 L 181.136719 272.964844 C 173.246094 281.117188 185.976562 289.007812 190.761719 294.476562 C 197.964844 301.945312 193.863281 310.941406 186.761719 316.621094 Z M 216.375 316.621094 "/><path style=" stroke:none;fill-rule:evenodd;fill:#38b6ff;fill-opacity:1;" d="M 194.179688 174.773438 C 208.695312 178.714844 219.058594 170.355469 233.730469 170.667969 C 248.40625 170.355469 258.816406 178.769531 273.335938 174.773438 C 278.171875 173.195312 283.851562 176.664062 283.644531 182.03125 L 283.644531 210.851562 C 260.976562 241.621094 206.433594 241.671875 183.765625 210.851562 L 183.765625 182.03125 C 183.609375 176.613281 189.339844 173.140625 194.179688 174.773438 Z M 217.003906 177.769531 C 208.957031 180.085938 201.015625 181.347656 191.65625 178.820312 C 189.761719 178.769531 188.078125 180.03125 188.234375 182.03125 L 188.234375 210.011719 C 211.378906 236.042969 256.082031 236.042969 279.277344 210.011719 L 279.277344 182.03125 C 279.332031 180.925781 278.855469 179.925781 277.960938 179.402344 C 277.070312 178.820312 275.648438 178.664062 274.597656 178.980469 C 265.496094 181.660156 258.238281 179.769531 250.507812 177.769531 C 240.566406 174.351562 226.894531 174.351562 217.003906 177.769531 Z M 217.003906 177.769531 "/><path style=" stroke:none;fill-rule:evenodd;fill:#38b6ff;fill-opacity:1;" d="M 253.613281 191.128906 C 256.398438 190.496094 257.292969 194.914062 254.503906 195.441406 C 242.039062 197.703125 225.527344 197.703125 213.0625 195.441406 C 211.851562 195.179688 211.113281 194.023438 211.324219 192.863281 C 211.589844 191.65625 212.746094 190.917969 213.902344 191.128906 C 225.734375 193.234375 241.832031 193.234375 253.613281 191.128906 Z M 253.613281 191.128906 "/><path style=" stroke:none;fill-rule:evenodd;fill:#38b6ff;fill-opacity:1;" d="M 258.1875 205.90625 C 260.816406 204.910156 262.394531 209.117188 259.710938 210.0625 C 244.40625 215.007812 223.054688 215.007812 207.75 210.0625 C 206.59375 209.640625 206.011719 208.378906 206.433594 207.222656 C 206.855469 206.066406 208.117188 205.488281 209.273438 205.90625 C 223.578125 210.535156 243.882812 210.535156 258.1875 205.90625 Z M 258.1875 205.90625 "/><path style=" stroke:none;fill-rule:evenodd;fill:#38b6ff;fill-opacity:1;" d="M 187.605469 180.503906 C 189.550781 182.554688 186.289062 185.605469 184.398438 183.503906 L 167.355469 165.199219 C 166.515625 164.304688 166.566406 162.9375 167.460938 162.097656 C 168.355469 161.253906 169.722656 161.308594 170.566406 162.203125 Z M 187.605469 180.503906 "/><path style=" stroke:none;fill-rule:evenodd;fill:#38b6ff;fill-opacity:1;" d="M 283.066406 183.503906 C 281.171875 185.605469 277.859375 182.554688 279.855469 180.503906 L 296.898438 162.203125 C 297.738281 161.308594 299.105469 161.253906 300 162.097656 C 300.894531 162.9375 300.945312 164.304688 300.105469 165.199219 Z M 283.066406 183.503906 "/><path style=" stroke:none;fill-rule:evenodd;fill:#38b6ff;fill-opacity:1;" d="M 123.964844 180.03125 C 200.648438 182.398438 200.597656 293.636719 123.964844 296.054688 C 47.28125 293.6875 47.28125 182.398438 123.964844 180.03125 Z M 161.832031 200.121094 C 110.238281 151.578125 37.5 224.316406 86.042969 275.910156 C 137.640625 324.457031 210.378906 251.71875 161.832031 200.121094 Z M 161.832031 200.121094 "/><path style=" stroke:none;fill-rule:evenodd;fill:#38b6ff;fill-opacity:1;" d="M 122.335938 214.691406 C 104.191406 196.019531 82.625 221.214844 98.195312 240.566406 C 103.613281 246.457031 101.457031 270.808594 112.710938 267.550781 C 118.441406 266.234375 117.285156 255.453125 121.125 252.402344 C 129.121094 247.824219 129.488281 260.554688 131.75 264.867188 C 133.011719 267.339844 136.589844 268.601562 139.324219 267.445312 C 145.476562 264.445312 145.109375 245.984375 149.632812 240.566406 C 155.523438 232.207031 156.101562 224.210938 153.578125 218.269531 C 148.578125 206.90625 134.746094 204.488281 125.542969 214.742188 C 124.703125 215.636719 123.175781 215.636719 122.335938 214.691406 Z M 104.714844 204.226562 C 110.871094 202.859375 117.8125 204.433594 123.914062 210.0625 C 146.214844 190.394531 171.300781 220.425781 153.207031 243.039062 C 149.421875 248.71875 148.789062 266.339844 143.164062 270.230469 C 138.167969 274.125 130.121094 272.019531 127.648438 266.550781 C 126.542969 265.023438 125.175781 256.242188 123.703125 255.875 C 122.335938 259.082031 121.125 265.394531 119.285156 268.023438 C 116.179688 272.335938 109.132812 273.753906 104.609375 270.230469 C 101.296875 267.8125 99.773438 261.183594 98.246094 254.714844 C 97.140625 249.929688 96.039062 245.195312 94.511719 243.039062 C 83.414062 227.417969 87.886719 208.90625 104.714844 204.226562 Z M 104.714844 204.226562 "/><path style=" stroke:none;fill-rule:evenodd;fill:#38b6ff;fill-opacity:1;" d="M 122.125 212.007812 C 123.648438 209.589844 127.4375 212.113281 125.804688 214.480469 C 125.804688 214.480469 122.703125 218.375 116.023438 219.53125 C 114.8125 219.742188 113.710938 218.953125 113.5 217.742188 C 113.289062 216.53125 114.078125 215.429688 115.289062 215.21875 C 120.179688 214.324219 122.125 212.007812 122.125 212.007812 Z M 122.125 212.007812 "/></g></svg>