<svg xmlns="http://www.w3.org/2000/svg" xmlns:xlink="http://www.w3.org/1999/xlink" width="500" zoomAndPan="magnify" viewBox="0 0 375 374.999991" height="500" preserveAspectRatio="xMidYMid meet" version="1.2"><defs><clipPath id="e302b587aa"><path d="M 84 37.5 L 290.863281 37.5 L 290.863281 337 L 84 337 Z M 84 37.5 "/></clipPath></defs><g id="0c35a7c9ee"><g clip-rule="nonzero" clip-path="url(#e302b587aa)"><path style=" stroke:none;fill-rule:nonzero;fill:#38b6ff;fill-opacity:1;" d="M 235.074219 121.121094 C 236.972656 122.957031 237.023438 125.992188 235.1875 127.898438 L 167.453125 197.910156 C 165.617188 199.808594 162.589844 199.859375 160.691406 198.03125 L 140.667969 178.679688 C 138.757812 176.84375 138.695312 173.800781 140.535156 171.886719 C 142.375 169.972656 145.414062 169.914062 147.328125 171.753906 L 163.90625 187.789062 L 228.296875 121.230469 C 230.132812 119.328125 233.167969 119.28125 235.074219 121.121094 Z M 264.207031 178.082031 C 262.84375 227.601562 229.214844 236.308594 196.546875 244.769531 C 194.300781 245.351562 192.101562 245.917969 188.550781 246.875 C 187.765625 247.085938 186.90625 247.101562 186.0625 246.875 C 182.511719 245.917969 180.316406 245.34375 178.066406 244.769531 C 145.503906 236.339844 111.980469 227.652344 110.425781 178.554688 L 110.386719 177.957031 L 110.386719 100.507812 C 110.402344 98.070312 112.242188 95.980469 114.714844 95.726562 C 125.851562 94.558594 142.03125 90.136719 156.394531 84.125 C 168.292969 79.15625 178.738281 73.207031 183.550781 67.347656 L 183.820312 67.035156 L 183.96875 66.886719 C 184.308594 66.5625 184.671875 66.300781 185.0625 66.101562 L 185.160156 66.046875 C 185.792969 65.734375 186.472656 65.570312 187.15625 65.546875 L 187.445312 65.546875 C 188.125 65.570312 188.8125 65.734375 189.441406 66.046875 L 189.539062 66.101562 C 189.925781 66.300781 190.292969 66.5625 190.621094 66.878906 L 191.046875 67.347656 C 195.859375 73.199219 206.308594 79.148438 218.207031 84.125 C 232.421875 90.066406 248.429688 94.46875 259.558594 95.6875 C 262.144531 95.769531 264.214844 97.898438 264.214844 100.507812 L 264.214844 177.957031 L 264.199219 177.957031 Z M 254.601562 177.957031 L 254.585938 104.722656 C 242.980469 102.9375 227.9375 98.617188 214.53125 93.011719 C 203.679688 88.476562 193.761719 83.027344 187.304688 77.257812 C 180.847656 83.027344 170.929688 88.476562 160.078125 93.011719 C 146.671875 98.617188 131.625 102.929688 120.019531 104.722656 L 120.011719 178.179688 C 121.335938 220.152344 151.328125 227.921875 180.464844 235.464844 L 187.296875 237.242188 L 194.128906 235.464844 C 223.324219 227.90625 253.382812 220.128906 254.601562 177.957031 Z M 287.089844 313.800781 C 286.101562 314.1875 285.054688 314.234375 284.101562 313.980469 L 251.148438 305.199219 L 233.199219 334.15625 C 231.808594 336.414062 228.839844 337.117188 226.589844 335.71875 C 225.640625 335.128906 224.960938 334.261719 224.605469 333.285156 L 198.894531 268.464844 C 198.867188 268.472656 198.835938 268.480469 198.804688 268.488281 C 195.21875 269.4375 191.632812 270.386719 188.632812 271.214844 C 187.8125 271.449219 186.921875 271.46875 186.039062 271.222656 C 183.035156 270.394531 179.433594 269.4375 175.832031 268.488281 C 175.800781 268.480469 175.773438 268.472656 175.734375 268.464844 L 150.027344 333.285156 C 149.667969 334.261719 148.996094 335.128906 148.039062 335.71875 C 145.78125 337.109375 142.820312 336.414062 141.433594 334.15625 L 123.464844 305.199219 L 90.515625 313.988281 C 89.558594 314.234375 88.511719 314.1875 87.527344 313.800781 C 85.058594 312.820312 83.855469 310.035156 84.835938 307.566406 L 111.734375 239.746094 C 99.417969 227.714844 91.234375 210.242188 90.410156 183.3125 L 90.375 182.707031 L 90.375 81.636719 C 90.382812 79.210938 92.210938 77.117188 94.6875 76.855469 C 109.042969 75.324219 129.855469 69.507812 148.285156 61.640625 C 163.664062 55.070312 177.214844 47.171875 183.515625 39.347656 L 183.875 38.941406 L 183.941406 38.875 C 184.34375 38.480469 184.808594 38.164062 185.308594 37.933594 L 185.441406 37.875 C 186.046875 37.621094 186.675781 37.5 187.304688 37.5 C 187.929688 37.5 188.558594 37.621094 189.15625 37.867188 L 189.308594 37.933594 C 189.800781 38.15625 190.269531 38.472656 190.675781 38.875 L 191.101562 39.351562 C 197.402344 47.179688 210.941406 55.070312 226.332031 61.648438 C 244.632812 69.464844 265.28125 75.25 279.625 76.832031 C 282.195312 76.9375 284.242188 79.050781 284.242188 81.644531 L 284.242188 182.722656 L 284.226562 182.722656 L 284.226562 182.835938 C 283.496094 210.046875 275.28125 227.652344 262.890625 239.761719 L 289.785156 307.574219 C 290.757812 310.035156 289.554688 312.820312 287.089844 313.800781 Z M 166.386719 265.96875 C 149.4375 261.335938 132.824219 255.972656 119.476562 246.269531 L 97.277344 302.238281 L 124.445312 294.988281 C 126.621094 294.414062 128.847656 295.4375 129.886719 297.320312 L 144.5625 320.996094 Z M 196.347656 259.191406 C 234.140625 249.199219 273.054688 238.902344 274.609375 182.714844 L 274.59375 85.867188 C 259.730469 83.671875 240.050781 77.960938 222.554688 70.488281 C 208.3125 64.40625 195.367188 57.082031 187.304688 49.367188 C 179.238281 57.074219 166.296875 64.40625 152.050781 70.488281 C 134.554688 77.960938 114.878906 83.671875 100.015625 85.867188 L 100.007812 182.957031 C 101.671875 238.929688 140.527344 249.214844 178.261719 259.191406 C 181.160156 259.960938 184.054688 260.722656 187.304688 261.613281 C 190.554688 260.722656 193.445312 259.960938 196.347656 259.191406 Z M 277.335938 302.230469 L 255.140625 246.269531 C 241.785156 255.976562 225.171875 261.335938 208.222656 265.96875 L 230.050781 320.996094 L 244.730469 297.320312 C 245.769531 295.429688 247.988281 294.414062 250.171875 294.988281 Z M 277.335938 302.230469 "/></g></g></svg>