<svg xmlns="http://www.w3.org/2000/svg" xmlns:xlink="http://www.w3.org/1999/xlink" width="500" zoomAndPan="magnify" viewBox="0 0 375 374.999991" height="500" preserveAspectRatio="xMidYMid meet" version="1.2"><defs><clipPath id="1cb226db32"><path d="M 38 191 L 328 191 L 328 337.5 L 38 337.5 Z M 38 191 "/></clipPath><clipPath id="1e97d27979"><path d="M 167 37.5 L 337 37.5 L 337 128 L 167 128 Z M 167 37.5 "/></clipPath></defs><g id="0812cc4b60"><g clip-rule="nonzero" clip-path="url(#1cb226db32)"><path style=" stroke:none;fill-rule:nonzero;fill:#38b6ff;fill-opacity:1;" d="M 312.289062 220.359375 L 234.78125 265.109375 C 232.558594 266.414062 229.984375 267.117188 227.332031 267.117188 L 161.953125 267.117188 C 157.9375 267.117188 154.171875 268.675781 151.324219 271.523438 L 144.207031 278.640625 L 96.359375 230.792969 L 115.546875 211.605469 C 118.003906 209.167969 121.21875 207.625 124.574219 207.296875 C 125.121094 207.257812 125.644531 207.21875 126.152344 207.21875 L 164.546875 207.21875 C 168.464844 207.21875 172.304688 208.816406 175.09375 211.605469 L 176.285156 212.792969 C 179.132812 215.640625 182.894531 217.199219 186.910156 217.199219 L 227.625 217.199219 C 230.121094 217.199219 232.519531 218.097656 234.351562 219.675781 C 236.242188 221.375 237.414062 223.675781 237.628906 226.113281 C 237.785156 227.769531 237.589844 229.152344 236.964844 230.695312 C 236.535156 232 235.792969 233.191406 234.742188 234.242188 C 232.851562 236.132812 230.335938 237.167969 227.683594 237.167969 L 194.828125 237.167969 C 192.078125 237.167969 189.835938 239.410156 189.835938 242.160156 C 189.835938 244.910156 192.078125 247.152344 194.828125 247.152344 L 227.683594 247.152344 C 233.007812 247.152344 238.015625 245.0625 241.800781 241.300781 C 243.496094 239.585938 244.804688 237.675781 245.699219 235.742188 L 302.285156 203.0625 C 305.230469 201.40625 308.757812 201.308594 311.839844 202.867188 C 313.574219 203.707031 314.980469 205.035156 315.953125 206.710938 C 316.8125 208.230469 317.28125 209.964844 317.28125 211.703125 C 317.28125 215.328125 315.425781 218.566406 312.289062 220.359375 Z M 113.578125 325.652344 L 50.070312 262.105469 L 81.832031 230.382812 L 145.359375 293.890625 Z M 316.285156 193.9375 C 310.261719 190.878906 303.183594 191.050781 297.3125 194.40625 L 247.222656 223.324219 C 246.402344 219.074219 244.296875 215.171875 240.941406 212.1875 C 237.257812 208.972656 232.539062 207.21875 227.625 207.21875 L 186.910156 207.21875 C 185.566406 207.21875 184.296875 206.691406 183.34375 205.734375 L 182.152344 204.546875 C 177.511719 199.886719 171.078125 197.234375 164.546875 197.234375 L 126.152344 197.234375 C 125.390625 197.234375 124.652344 197.292969 123.65625 197.351562 C 117.945312 197.917969 112.5625 200.46875 108.488281 204.546875 L 89.300781 223.734375 L 85.363281 219.792969 C 83.410156 217.84375 80.273438 217.84375 78.324219 219.792969 L 39.480469 258.578125 C 38.546875 259.511719 38.019531 260.78125 38.019531 262.105469 C 38.019531 263.433594 38.546875 264.699219 39.480469 265.636719 L 110.046875 336.242188 C 110.984375 337.175781 112.25 337.703125 113.578125 337.703125 C 114.902344 337.703125 116.167969 337.175781 117.105469 336.242188 L 155.945312 297.417969 C 157.898438 295.46875 157.898438 292.308594 155.945312 290.359375 L 151.265625 285.699219 L 158.382812 278.582031 C 159.339844 277.628906 160.605469 277.101562 161.953125 277.101562 L 227.332031 277.101562 C 231.757812 277.101562 236.085938 275.929688 239.8125 273.746094 L 317.28125 229.015625 C 323.539062 225.410156 327.261719 218.9375 327.261719 211.703125 C 327.261719 208.210938 326.347656 204.761719 324.59375 201.738281 C 322.640625 198.324219 319.757812 195.617188 316.285156 193.9375 "/></g><path style=" stroke:none;fill-rule:nonzero;fill:#38b6ff;fill-opacity:1;" d="M 242.65625 142.324219 C 234.546875 142.324219 227.683594 137.761719 227.683594 132.34375 C 227.683594 129.59375 225.441406 127.351562 222.691406 127.351562 C 219.941406 127.351562 217.699219 129.59375 217.699219 132.34375 C 217.699219 141.972656 226.277344 150.046875 237.667969 151.898438 L 237.667969 157.300781 C 237.667969 160.050781 239.910156 162.292969 242.65625 162.292969 C 245.40625 162.292969 247.648438 160.050781 247.648438 157.300781 L 247.648438 151.898438 C 259.035156 150.046875 267.617188 141.972656 267.617188 132.34375 C 267.617188 121.324219 256.425781 112.375 242.65625 112.375 C 234.546875 112.375 227.683594 107.8125 227.683594 102.390625 C 227.683594 96.972656 234.546875 92.410156 242.65625 92.410156 C 250.769531 92.410156 257.632812 96.972656 257.632812 102.390625 C 257.632812 105.140625 259.875 107.382812 262.625 107.382812 C 265.375 107.382812 267.617188 105.140625 267.617188 102.390625 C 267.617188 92.757812 259.035156 84.6875 247.648438 82.835938 L 247.648438 77.433594 C 247.648438 74.683594 245.40625 72.441406 242.65625 72.441406 C 239.910156 72.441406 237.667969 74.683594 237.667969 77.433594 L 237.667969 82.835938 C 226.277344 84.6875 217.699219 92.757812 217.699219 102.390625 C 217.699219 113.410156 228.890625 122.359375 242.65625 122.359375 C 250.769531 122.359375 257.632812 126.921875 257.632812 132.34375 C 257.632812 137.761719 250.769531 142.324219 242.65625 142.324219 "/><g clip-rule="nonzero" clip-path="url(#1e97d27979)"><path style=" stroke:none;fill-rule:nonzero;fill:#38b6ff;fill-opacity:1;" d="M 335.179688 104.710938 C 333.230469 102.761719 330.070312 102.761719 328.121094 104.710938 L 322.175781 110.660156 C 318.761719 69.75 284.425781 37.5 242.65625 37.5 C 209.179688 37.5 178.996094 58.636719 167.570312 90.089844 C 166.632812 92.679688 167.957031 95.546875 170.550781 96.484375 C 173.164062 97.4375 176.011719 96.09375 176.949219 93.5 C 186.949219 65.988281 213.351562 47.484375 242.65625 47.484375 C 278.671875 47.484375 308.386719 74.859375 312.132812 109.898438 L 306.945312 104.710938 C 304.996094 102.761719 301.835938 102.761719 299.886719 104.710938 C 297.9375 106.660156 297.9375 109.820312 299.886719 111.769531 L 314.003906 125.886719 C 314.980469 126.863281 316.246094 127.351562 317.535156 127.351562 C 318.820312 127.351562 320.085938 126.863281 321.0625 125.886719 L 335.179688 111.769531 C 337.128906 109.820312 337.128906 106.660156 335.179688 104.710938 "/></g><path style=" stroke:none;fill-rule:nonzero;fill:#38b6ff;fill-opacity:1;" d="M 157.195312 130.023438 L 163.140625 124.074219 C 166.554688 164.984375 200.890625 197.234375 242.65625 197.234375 C 276.625 197.234375 306.945312 175.6875 318.097656 143.632812 C 319.015625 141.019531 317.628906 138.171875 315.039062 137.273438 C 312.425781 136.359375 309.578125 137.742188 308.679688 140.335938 C 298.910156 168.394531 272.375 187.25 242.65625 187.25 C 206.644531 187.25 176.929688 159.875 173.183594 124.835938 L 178.371094 130.023438 C 179.34375 130.996094 180.632812 131.484375 181.898438 131.484375 C 183.1875 131.484375 184.453125 130.996094 185.429688 130.023438 C 187.378906 128.070312 187.378906 124.914062 185.429688 122.964844 L 171.3125 108.847656 C 169.363281 106.894531 166.203125 106.894531 164.253906 108.847656 L 150.136719 122.964844 C 148.1875 124.914062 148.1875 128.070312 150.136719 130.023438 C 152.085938 131.972656 155.246094 131.972656 157.195312 130.023438 "/></g></svg>