<svg xmlns="http://www.w3.org/2000/svg" xmlns:xlink="http://www.w3.org/1999/xlink" width="500" zoomAndPan="magnify" viewBox="0 0 375 374.999991" height="500" preserveAspectRatio="xMidYMid meet" version="1.2"><defs><clipPath id="9012de43eb"><path d="M 37.5 37.5 L 337.5 37.5 L 337.5 337.5 L 37.5 337.5 Z M 37.5 37.5 "/></clipPath></defs><g id="7c3e266987"><rect x="0" width="375" y="0" height="374.999991" style="fill:#ffffff;fill-opacity:1;stroke:none;"/><rect x="0" width="375" y="0" height="374.999991" style="fill:#ffffff;fill-opacity:1;stroke:none;"/><path style=" stroke:none;fill-rule:nonzero;fill:#38b6ff;fill-opacity:1;" d="M 241.148438 229.101562 C 222.84375 210.773438 218.667969 222.128906 210.074219 231.476562 C 204.40625 237.644531 195.132812 234.976562 183.171875 225.488281 C 168.332031 213.703125 157.429688 197.617188 151.972656 179.472656 C 147.582031 164.851562 148.535156 155.253906 156.371094 152.265625 C 168.226562 147.75 180.328125 148.066406 170.078125 124.285156 C 157.167969 94.339844 150.84375 72.4375 129.820312 85.699219 C 104.179688 101.867188 96.921875 134.574219 109.125 171.863281 C 120.550781 206.773438 146.183594 244.578125 174.390625 268.121094 C 204.507812 293.261719 237.582031 298.621094 262.09375 280.789062 C 282.191406 266.167969 264.191406 252.183594 241.15625 229.109375 Z M 241.148438 229.101562 "/><g clip-rule="nonzero" clip-path="url(#9012de43eb)"><path style=" stroke:none;fill-rule:nonzero;fill:#38b6ff;fill-opacity:1;" d="M 187.5 337.5 C 147.429688 337.5 109.769531 321.894531 81.4375 293.5625 C 53.101562 265.238281 37.5 227.570312 37.5 187.5 C 37.5 147.429688 53.101562 109.769531 81.4375 81.4375 C 109.769531 53.101562 147.429688 37.5 187.5 37.5 C 227.570312 37.5 265.238281 53.101562 293.5625 81.4375 C 321.894531 109.769531 337.5 147.4375 337.5 187.5 C 337.5 227.5625 321.894531 265.230469 293.5625 293.5625 C 265.230469 321.898438 227.5625 337.5 187.5 337.5 Z M 187.5 56.945312 C 115.507812 56.945312 56.945312 115.507812 56.945312 187.5 C 56.945312 259.492188 115.507812 318.054688 187.5 318.054688 C 259.492188 318.054688 318.054688 259.484375 318.054688 187.5 C 318.054688 115.515625 259.492188 56.945312 187.5 56.945312 Z M 187.5 56.945312 "/></g></g></svg>