<svg xmlns="http://www.w3.org/2000/svg" xmlns:xlink="http://www.w3.org/1999/xlink" width="500" zoomAndPan="magnify" viewBox="0 0 375 374.999991" height="500" preserveAspectRatio="xMidYMid meet" version="1.2"><defs><clipPath id="c6342e7a67"><path d="M 41 51 L 334 51 L 334 323.859375 L 41 323.859375 Z M 41 51 "/></clipPath></defs><g id="9deef2f38b"><g clip-rule="nonzero" clip-path="url(#c6342e7a67)"><path style=" stroke:none;fill-rule:nonzero;fill:#38b6ff;fill-opacity:1;" d="M 318.453125 275.472656 C 310.640625 274.738281 302.707031 274.496094 294.835938 274.128906 C 291.96875 268.820312 285.929688 264.609375 281.597656 261.007812 C 270.550781 251.796875 259.203125 243.007812 247.730469 234.285156 C 247.546875 232.636719 247.121094 230.925781 246.203125 229.28125 C 241.871094 221.042969 230.15625 217.992188 221.675781 217.382812 C 216.792969 217.015625 211.851562 217.320312 206.910156 217.382812 C 205.75 217.382812 204.589844 217.382812 203.371094 217.382812 C 203.429688 205.847656 203.429688 194.316406 203.492188 182.722656 C 211.546875 182.90625 219.722656 183.210938 227.65625 182.417969 C 234.734375 181.746094 245.046875 179.792969 248.523438 172.652344 C 250.230469 169.113281 250.414062 163.929688 249.011719 160.207031 C 247.058594 155.019531 241.445312 155.628906 236.929688 155.570312 C 230.097656 155.445312 223.324219 155.445312 216.488281 155.445312 C 216.246094 149.953125 215.511719 144.15625 216.304688 138.726562 C 216.550781 137.019531 217.585938 132.871094 220.027344 133.722656 C 222.589844 134.578125 222.957031 138.789062 223.324219 140.984375 C 224.054688 145.621094 231.132812 143.667969 230.402344 139.03125 C 229.730469 134.761719 228.328125 130.246094 224.480469 127.804688 C 220.699219 125.425781 216 125.851562 212.886719 129.148438 C 209.714844 132.441406 208.921875 137.261719 208.859375 141.65625 C 208.800781 146.234375 209.042969 150.871094 209.226562 155.445312 C 207.398438 155.445312 205.503906 155.445312 203.675781 155.507812 C 203.734375 133.050781 203.859375 110.660156 203.917969 88.203125 C 203.917969 86.191406 202.210938 84.601562 200.257812 84.542969 C 199.160156 84.480469 198.0625 84.480469 197.023438 84.421875 C 197.085938 80.636719 197.144531 76.855469 197.328125 73.070312 C 197.449219 69.777344 197.9375 66.359375 197.632812 63.0625 C 197.085938 55.984375 190.800781 52.019531 184.210938 51.347656 C 179.390625 50.859375 175.542969 52.507812 171.640625 55.191406 C 165.230469 59.585938 159.253906 64.710938 153.332031 69.777344 C 149 64.40625 144.121094 59.402344 138.871094 54.949219 C 135.332031 51.898438 130.085938 57.023438 133.683594 60.132812 C 145.277344 70.019531 154.554688 82.101562 161.144531 95.832031 C 163.21875 100.101562 169.503906 96.378906 167.488281 92.109375 C 164.683594 86.371094 161.449219 80.820312 157.726562 75.632812 C 162.914062 71.117188 168.222656 66.664062 173.773438 62.574219 C 175.421875 61.355469 177.191406 60.074219 179.082031 59.21875 C 180.058594 58.792969 181.035156 58.546875 181.890625 58.546875 C 184.453125 58.546875 187.382812 59.035156 189.210938 60.988281 C 190.433594 62.269531 190.3125 63.613281 190.3125 65.503906 C 190.1875 71.726562 189.761719 77.953125 189.640625 84.175781 C 188.785156 84.175781 187.871094 84.113281 187.015625 84.113281 C 185.0625 84.054688 183.355469 85.824219 183.355469 87.777344 C 183.539062 130.917969 183.78125 174.117188 183.964844 217.257812 C 171.578125 217.382812 159.191406 218.175781 146.804688 217.867188 C 140.886719 217.746094 135.148438 217.503906 129.597656 218.296875 C 117.636719 206.519531 105.738281 194.683594 94.390625 182.355469 C 88.835938 176.316406 83.160156 170.273438 78.949219 163.804688 C 75.960938 159.230469 72.179688 155.203125 67.417969 152.515625 C 67.417969 152.273438 67.417969 152.03125 67.359375 151.722656 C 66.320312 144.769531 65.40625 137.566406 63.511719 130.792969 C 61.5625 123.714844 53.75 117.003906 46.671875 122.3125 C 40.8125 126.707031 41.425781 134.273438 42.339844 140.617188 C 43.4375 148.488281 44.78125 156.300781 46.246094 164.109375 C 46.304688 164.355469 47.710938 173.570312 52.101562 178.695312 C 56.984375 184.371094 61.316406 190.714844 66.199219 196.328125 C 79.316406 211.523438 94.570312 224.886719 108.972656 238.859375 C 109.339844 242.09375 110.558594 245.207031 112.574219 247.769531 C 118.125 254.847656 127.523438 254.542969 135.636719 254.542969 C 137.285156 254.542969 138.933594 254.542969 140.582031 254.542969 C 140.214844 260.15625 141.191406 266.5 145.523438 270.40625 C 148.636719 273.214844 152.539062 273.824219 156.566406 274.007812 C 160.777344 274.191406 164.988281 274.3125 169.199219 274.371094 C 169.257812 274.371094 169.257812 274.371094 169.320312 274.371094 C 169.320312 274.433594 169.320312 274.433594 169.320312 274.496094 C 169.625 284.683594 169.871094 294.8125 170.175781 305.003906 C 156.75 305.125 143.265625 305.25 129.839844 305.371094 C 127.886719 305.371094 126.179688 307.019531 126.179688 309.03125 C 126.179688 312.753906 126.179688 316.476562 126.179688 320.199219 C 126.179688 322.152344 127.828125 323.859375 129.839844 323.859375 C 162.425781 323.492188 194.949219 323.066406 227.53125 322.699219 C 228.265625 322.699219 228.9375 322.515625 229.425781 322.152344 C 230.460938 321.601562 231.253906 320.5625 231.195312 319.039062 C 231.070312 315.378906 230.890625 311.777344 230.765625 308.117188 C 230.707031 306.164062 229.179688 304.457031 227.105469 304.457031 C 214.109375 304.578125 201.050781 304.699219 188.054688 304.820312 C 187.929688 294.449219 187.75 284.074219 187.625 273.761719 C 189.699219 273.640625 191.777344 273.457031 193.910156 273.335938 C 197.632812 273.089844 201.539062 273.214844 205.015625 271.75 C 211.972656 268.820312 214.230469 261.191406 214.292969 254.238281 C 219.050781 254.480469 223.75 254.726562 228.328125 253.992188 C 241.566406 264.855469 255.050781 275.714844 269.453125 285.113281 C 273.359375 287.613281 277.628906 290.542969 282.207031 291.582031 C 283.121094 291.761719 303.929688 294.265625 312.65625 294.265625 C 319.917969 294.265625 331.996094 296.949219 333.21875 286.453125 C 333.890625 278.949219 324.429688 276.019531 318.453125 275.472656 Z M 191.289062 217.320312 C 191.105469 175.398438 190.859375 133.539062 190.675781 91.621094 C 192.628906 91.679688 194.582031 91.742188 196.535156 91.804688 C 196.351562 133.664062 196.230469 175.523438 196.046875 217.382812 C 194.523438 217.320312 192.875 217.320312 191.289062 217.320312 Z M 229.789062 162.890625 C 231.804688 162.890625 233.816406 162.953125 235.769531 162.953125 C 236.992188 162.953125 238.148438 163.011719 239.371094 163.011719 C 239.980469 163.011719 241.628906 162.769531 241.996094 163.011719 C 243.519531 163.988281 242.421875 169.238281 241.203125 170.519531 C 239.125 172.652344 235.34375 173.570312 232.535156 174.242188 C 229.300781 175.035156 226.070312 175.277344 222.710938 175.339844 C 216.304688 175.460938 209.898438 175.460938 203.492188 175.398438 C 203.492188 171.25 203.550781 167.039062 203.550781 162.890625 C 212.339844 162.769531 221.066406 162.769531 229.789062 162.890625 Z M 49.601562 130.367188 C 50.941406 126.949219 53.8125 127.5625 55.457031 130.429688 C 56.863281 132.746094 57.105469 135.796875 57.59375 138.421875 C 58.328125 142.144531 58.996094 145.867188 59.609375 149.648438 C 57.65625 149.34375 55.703125 149.527344 53.75 150.320312 C 52.894531 150.6875 52.101562 151.175781 51.371094 151.722656 C 50.941406 149.039062 50.457031 146.414062 50.089844 143.730469 C 49.480469 139.582031 47.953125 134.457031 49.601562 130.367188 Z M 80.109375 200.90625 C 74.4375 194.988281 69.25 188.640625 63.878906 182.417969 C 59.609375 177.472656 54.605469 171.007812 53.628906 164.355469 C 53.324219 162.21875 53.8125 159.65625 55.277344 158.007812 C 58.023438 154.957031 63.085938 158.253906 65.710938 160.082031 C 68.945312 162.402344 71.140625 165.390625 73.335938 168.625 C 77.730469 175.15625 83.160156 181.011719 88.46875 186.808594 C 99.085938 198.34375 110.191406 209.449219 121.359375 220.492188 C 115.746094 222.078125 111.597656 227.203125 110.253906 230.011719 C 100.1875 220.433594 89.75 210.972656 80.109375 200.90625 Z M 223.445312 311.898438 C 223.503906 313.121094 223.566406 314.28125 223.566406 315.5 C 193.484375 315.867188 163.402344 316.230469 133.320312 316.597656 C 133.320312 315.316406 133.320312 314.035156 133.320312 312.753906 C 163.402344 312.449219 193.421875 312.144531 223.445312 311.898438 Z M 177.375 305.003906 C 177.070312 294.875 176.824219 284.746094 176.519531 274.554688 C 176.519531 274.496094 176.519531 274.433594 176.519531 274.371094 C 177.742188 274.3125 178.902344 274.3125 180.121094 274.25 C 180.242188 284.503906 180.425781 294.753906 180.546875 304.945312 C 179.511719 305.003906 178.414062 305.003906 177.375 305.003906 Z M 205.445312 261.558594 C 203.613281 265.28125 200.257812 265.648438 196.535156 265.890625 C 190.496094 266.257812 184.390625 266.804688 178.351562 267.050781 C 171.273438 267.355469 164.132812 267.113281 157.054688 266.804688 C 153.273438 266.625 150.039062 266.136719 148.636719 262.167969 C 147.78125 259.726562 147.71875 257.105469 147.902344 254.542969 C 167.550781 254.238281 187.199219 253.261719 206.847656 253.871094 C 206.847656 256.554688 206.601562 259.238281 205.445312 261.558594 Z M 218.808594 247.21875 C 198.0625 245.753906 177.3125 246.609375 156.566406 247.097656 C 150.585938 247.21875 144.609375 247.339844 138.566406 247.339844 C 134.417969 247.339844 130.023438 247.644531 125.875 247.035156 C 122.089844 246.488281 118.550781 244.902344 117.027344 241.238281 C 115.011719 236.601562 116.539062 231.84375 120.6875 229.097656 C 127.09375 225.191406 134.234375 224.640625 141.558594 225.007812 C 151.808594 225.496094 162.058594 225.070312 172.308594 224.765625 C 182.867188 224.460938 193.363281 224.640625 203.917969 224.640625 C 212.339844 224.640625 221.1875 223.542969 229.363281 226.046875 C 235.890625 228.058594 244.007812 233 238.820312 240.566406 C 234.550781 246.792969 225.640625 247.707031 218.808594 247.21875 Z M 279.886719 282.914062 C 276.835938 281.328125 273.90625 279.4375 271.039062 277.484375 C 263.65625 272.542969 256.515625 267.171875 249.5 261.742188 C 245.167969 258.386719 240.894531 254.96875 236.625 251.550781 C 236.929688 251.429688 237.175781 251.308594 237.480469 251.125 C 241.203125 249.234375 244.433594 246 246.203125 242.277344 C 254.746094 248.804688 263.289062 255.457031 271.648438 262.292969 C 274.945312 264.976562 278.179688 267.660156 281.414062 270.40625 C 283.671875 272.359375 286.539062 274.433594 288.125 276.996094 C 289.40625 279.011719 289.589844 281.449219 288.003906 283.402344 C 285.804688 285.964844 282.265625 284.195312 279.886719 282.914062 Z M 325.710938 286.148438 C 325.164062 288.589844 318.816406 287.066406 317.230469 287.003906 C 313.324219 286.882812 309.421875 287.066406 305.515625 286.699219 C 302.039062 286.332031 298.621094 286.027344 295.140625 285.722656 C 295.570312 284.929688 295.875 284.074219 296.117188 283.097656 C 296.242188 282.550781 296.363281 282 296.421875 281.449219 C 303.5 281.695312 326.566406 282.304688 325.710938 286.148438 Z M 325.710938 286.148438 "/></g></g></svg>