<svg xmlns="http://www.w3.org/2000/svg" xmlns:xlink="http://www.w3.org/1999/xlink" width="500" zoomAndPan="magnify" viewBox="0 0 375 374.999991" height="500" preserveAspectRatio="xMidYMid meet" version="1.2"><defs><clipPath id="22ff003cad"><path d="M 37.5 56.292969 L 337.5 56.292969 L 337.5 318.792969 L 37.5 318.792969 Z M 37.5 56.292969 "/></clipPath></defs><g id="aa6ad7fb92"><rect x="0" width="375" y="0" height="374.999991" style="fill:#ffffff;fill-opacity:1;stroke:none;"/><rect x="0" width="375" y="0" height="374.999991" style="fill:#ffffff;fill-opacity:1;stroke:none;"/><g clip-rule="nonzero" clip-path="url(#22ff003cad)"><path style=" stroke:none;fill-rule:nonzero;fill:#ffffff;fill-opacity:1;" d="M 337.5 150.710938 L 263.238281 150.710938 L 263.238281 76.765625 L 226.625 76.765625 C 217.734375 63.960938 203.21875 56.355469 187.601562 56.355469 C 171.984375 56.355469 157.46875 63.960938 148.578125 76.765625 L 111.941406 76.765625 L 111.941406 150.710938 L 37.5 150.710938 L 37.5 173.488281 L 52.058594 173.488281 L 52.058594 318.636719 L 164.894531 318.636719 L 164.894531 264.921875 L 206.390625 264.921875 L 206.390625 318.636719 L 322.917969 318.636719 L 322.917969 173.488281 L 337.476562 173.488281 L 337.476562 150.710938 Z M 95.941406 271.671875 L 82.484375 271.671875 L 82.484375 252.902344 L 95.941406 252.902344 Z M 95.941406 237.421875 L 82.484375 237.421875 L 82.484375 218.652344 L 95.941406 218.652344 Z M 95.941406 203.148438 L 82.484375 203.148438 L 82.484375 184.378906 L 95.941406 184.378906 Z M 143.246094 240.546875 L 129.789062 240.546875 L 129.789062 221.78125 L 143.246094 221.78125 Z M 143.246094 206.273438 L 129.789062 206.273438 L 129.789062 187.507812 L 143.246094 187.507812 Z M 143.246094 172 L 129.789062 172 L 129.789062 153.234375 L 143.246094 153.234375 Z M 212.535156 87.25 C 212.738281 87.542969 212.917969 87.835938 213.097656 88.128906 L 203.332031 88.128906 L 203.332031 78.363281 C 206.933594 80.589844 210.082031 83.605469 212.535156 87.25 Z M 171.871094 129.332031 C 167.910156 126.882812 164.558594 123.527344 162.125 119.589844 L 171.871094 119.589844 Z M 203.308594 119.589844 L 213.054688 119.589844 C 210.601562 123.550781 207.246094 126.902344 203.308594 129.332031 Z M 171.871094 78.363281 L 171.871094 88.128906 L 162.105469 88.128906 C 162.285156 87.835938 162.464844 87.542969 162.667969 87.25 C 165.097656 83.605469 168.246094 80.589844 171.871094 78.363281 Z M 177.453125 240.546875 L 163.996094 240.546875 L 163.996094 221.78125 L 177.453125 221.78125 Z M 177.453125 206.273438 L 163.996094 206.273438 L 163.996094 187.507812 L 177.453125 187.507812 Z M 177.453125 172 L 163.996094 172 L 163.996094 153.234375 L 177.453125 153.234375 Z M 211.636719 240.546875 L 198.179688 240.546875 L 198.179688 221.78125 L 211.636719 221.78125 Z M 211.636719 206.273438 L 198.179688 206.273438 L 198.179688 187.507812 L 211.636719 187.507812 Z M 211.636719 172 L 198.179688 172 L 198.179688 153.234375 L 211.636719 153.234375 Z M 245.730469 240.546875 L 232.273438 240.546875 L 232.273438 221.78125 L 245.730469 221.78125 Z M 245.730469 206.273438 L 232.273438 206.273438 L 232.273438 187.507812 L 245.730469 187.507812 Z M 245.730469 172 L 232.273438 172 L 232.273438 153.234375 L 245.730469 153.234375 Z M 292.492188 270.546875 L 279.035156 270.546875 L 279.035156 251.777344 L 292.492188 251.777344 Z M 292.492188 236.296875 L 279.035156 236.296875 L 279.035156 217.527344 L 292.492188 217.527344 Z M 292.492188 202.023438 L 279.035156 202.023438 L 279.035156 183.253906 L 292.492188 183.253906 Z M 292.492188 202.023438 "/></g><path style=" stroke:none;fill-rule:nonzero;fill:#38b6ff;fill-opacity:1;" d="M 43.125 156.339844 L 110.636719 156.339844 L 110.636719 167.859375 L 43.125 167.859375 Z M 43.125 156.339844 "/><path style=" stroke:none;fill-rule:nonzero;fill:#38b6ff;fill-opacity:1;" d="M 264.363281 156.339844 L 331.875 156.339844 L 331.875 167.859375 L 264.363281 167.859375 Z M 264.363281 156.339844 "/><path style=" stroke:none;fill-rule:nonzero;fill:#38b6ff;fill-opacity:1;" d="M 264.363281 312.988281 L 317.3125 312.988281 L 317.3125 172.945312 L 264.363281 172.945312 Z M 273.410156 177.628906 L 298.117188 177.628906 L 298.117188 207.648438 L 273.410156 207.648438 Z M 273.410156 211.902344 L 298.117188 211.902344 L 298.117188 241.921875 L 273.410156 241.921875 Z M 273.410156 246.175781 L 298.117188 246.175781 L 298.117188 276.195312 L 273.410156 276.195312 Z M 273.410156 246.175781 "/><path style=" stroke:none;fill-rule:nonzero;fill:#38b6ff;fill-opacity:1;" d="M 57.664062 312.988281 L 110.617188 312.988281 L 110.617188 172.945312 L 57.664062 172.945312 Z M 76.859375 178.753906 L 101.570312 178.753906 L 101.570312 208.773438 L 76.859375 208.773438 Z M 76.859375 213.027344 L 101.570312 213.027344 L 101.570312 243.046875 L 76.859375 243.046875 Z M 76.859375 247.300781 L 101.570312 247.300781 L 101.570312 277.320312 L 76.859375 277.320312 Z M 76.859375 247.300781 "/><path style=" stroke:none;fill-rule:nonzero;fill:#38b6ff;fill-opacity:1;" d="M 222.4375 80.636719 C 214.652344 68.957031 201.621094 61.980469 187.578125 61.980469 C 173.558594 61.980469 160.527344 68.957031 152.71875 80.636719 C 152.335938 81.21875 151.976562 81.78125 151.617188 82.390625 L 117.570312 82.390625 L 117.570312 312.988281 L 159.269531 312.988281 L 159.269531 259.273438 L 212.019531 259.273438 L 212.019531 312.988281 L 257.589844 312.988281 L 257.589844 82.390625 L 223.539062 82.390625 C 223.203125 81.804688 222.820312 81.21875 222.4375 80.636719 Z M 157.964844 84.144531 C 164.578125 74.222656 175.652344 68.28125 187.578125 68.28125 C 199.507812 68.28125 210.578125 74.199219 217.195312 84.144531 C 221.085938 89.996094 223.15625 96.816406 223.15625 103.859375 C 223.15625 123.484375 207.203125 139.4375 187.578125 139.4375 C 167.957031 139.4375 152 123.484375 152 103.859375 C 152 96.792969 154.070312 89.972656 157.964844 84.144531 Z M 148.847656 246.175781 L 124.140625 246.175781 L 124.140625 216.152344 L 148.847656 216.152344 Z M 148.847656 211.902344 L 124.140625 211.902344 L 124.140625 181.878906 L 148.847656 181.878906 Z M 148.847656 177.628906 L 124.140625 177.628906 L 124.140625 147.605469 L 148.847656 147.605469 Z M 183.054688 246.175781 L 158.347656 246.175781 L 158.347656 216.152344 L 183.054688 216.152344 Z M 183.054688 211.902344 L 158.347656 211.902344 L 158.347656 181.878906 L 183.054688 181.878906 Z M 183.054688 177.628906 L 158.347656 177.628906 L 158.347656 147.605469 L 183.054688 147.605469 Z M 217.261719 246.175781 L 192.550781 246.175781 L 192.550781 216.152344 L 217.261719 216.152344 Z M 217.261719 211.902344 L 192.550781 211.902344 L 192.550781 181.878906 L 217.261719 181.878906 Z M 217.261719 177.628906 L 192.550781 177.628906 L 192.550781 147.605469 L 217.261719 147.605469 Z M 251.332031 246.175781 L 226.644531 246.175781 L 226.644531 216.152344 L 251.355469 216.152344 L 251.355469 246.175781 Z M 251.332031 211.902344 L 226.644531 211.902344 L 226.644531 181.878906 L 251.355469 181.878906 L 251.355469 211.902344 Z M 251.332031 177.628906 L 226.644531 177.628906 L 226.644531 147.605469 L 251.355469 147.605469 L 251.355469 177.628906 Z M 251.332031 177.628906 "/><path style=" stroke:none;fill-rule:nonzero;fill:#38b6ff;fill-opacity:1;" d="M 177.496094 130.121094 L 197.683594 130.121094 L 197.683594 113.964844 L 213.839844 113.964844 L 213.839844 93.753906 L 197.683594 93.753906 L 197.683594 77.597656 L 177.496094 77.597656 L 177.496094 93.753906 L 161.316406 93.753906 L 161.316406 113.964844 L 177.496094 113.964844 Z M 177.496094 130.121094 "/></g></svg>